<svg width="597" height="553" viewBox="0 0 597 553" fill="none" xmlns="http://www.w3.org/2000/svg">
<rect x="13" y="13" width="281" height="442" rx="51" fill="white" stroke="black" stroke-width="26"/>
<path d="M97 275L201 275" stroke="black" stroke-width="29" stroke-linecap="round"/>
<path d="M119 117.132L153.5 85L183 117.132L168 275H130.5L119 117.132Z" stroke="black" stroke-width="21" stroke-linejoin="round"/>
<path d="M132 281L151.945 281L169 281L159 382H138.937L132 281Z" stroke="black" stroke-width="21" stroke-linejoin="round"/>
<rect x="315.12" y="26.5561" width="281" height="442" rx="51" transform="rotate(19.2281 315.12 26.5561)" fill="white" stroke="black" stroke-width="26"/>
<path d="M444.008 213.762C429.376 255.715 400.914 299.309 344.26 427.534C324.025 420.476 336.532 242.551 351.164 200.598C365.797 158.645 394.062 130.357 414.297 137.415C434.532 144.472 458.641 171.809 444.008 213.762Z" stroke="black" stroke-width="21"/>
<path d="M338.945 239.469L354.399 233.688L342.837 202.78L327.383 208.561L338.945 239.469ZM324.421 209.669C315.886 212.862 311.555 222.369 314.748 230.904C317.941 239.439 327.448 243.77 335.983 240.577L324.421 209.669ZM327.383 208.561L324.421 209.669L335.983 240.577L338.945 239.469L327.383 208.561Z" fill="black"/>
<path d="M459.833 187.268L443.566 190.028L449.087 222.563L465.355 219.803L459.833 187.268ZM468.472 219.273C477.457 217.749 483.504 209.23 481.979 200.245C480.455 191.261 471.935 185.214 462.951 186.739L468.472 219.273ZM465.355 219.803L468.472 219.273L462.951 186.739L459.833 187.268L465.355 219.803Z" fill="black"/>
<path d="M381.197 351.773L374.486 336.699L404.634 323.277L411.345 338.351L381.197 351.773ZM417.955 353.199C421.662 361.524 417.918 371.277 409.593 374.983C401.268 378.69 391.514 374.946 387.808 366.621L417.955 353.199ZM411.345 338.351L417.955 353.199L387.808 366.621L381.197 351.773L411.345 338.351Z" fill="black"/>
</svg>
